<mxfile host="app.diagrams.net" modified="2021-09-02T15:08:43.485Z" agent="5.0 (Windows NT 10.0; Win64; x64) AppleWebKit/537.36 (KHTML, like Gecko) Chrome/92.0.4515.159 Safari/537.36" etag="p6Y9WNpjPKj_gQjnBnlt" version="15.0.6" type="github">
  <diagram id="6OuexgIGDOipwH1l8YNA" name="Page-1">
    <mxGraphModel dx="1422" dy="772" grid="1" gridSize="10" guides="1" tooltips="1" connect="1" arrows="1" fold="1" page="1" pageScale="1" pageWidth="827" pageHeight="1169" math="0" shadow="0">
      <root>
        <mxCell id="0" />
        <mxCell id="1" parent="0" />
        <mxCell id="TftClXgvJGGN0wYb9kB6-1" value="" style="rounded=0;whiteSpace=wrap;html=1;" vertex="1" parent="1">
          <mxGeometry x="99" y="70" width="630" height="340" as="geometry" />
        </mxCell>
        <mxCell id="TftClXgvJGGN0wYb9kB6-2" value="用户名：" style="text;html=1;strokeColor=none;fillColor=none;align=center;verticalAlign=middle;whiteSpace=wrap;rounded=0;" vertex="1" parent="1">
          <mxGeometry x="290" y="170" width="50" height="20" as="geometry" />
        </mxCell>
        <mxCell id="TftClXgvJGGN0wYb9kB6-3" value="密&amp;nbsp; &amp;nbsp;码：" style="text;html=1;strokeColor=none;fillColor=none;align=center;verticalAlign=middle;whiteSpace=wrap;rounded=0;" vertex="1" parent="1">
          <mxGeometry x="290" y="210" width="50" height="20" as="geometry" />
        </mxCell>
        <mxCell id="TftClXgvJGGN0wYb9kB6-5" value="" style="text;html=1;fillColor=none;align=center;verticalAlign=middle;whiteSpace=wrap;rounded=0;strokeColor=#000000;" vertex="1" parent="1">
          <mxGeometry x="350" y="170" width="180" height="20" as="geometry" />
        </mxCell>
        <mxCell id="TftClXgvJGGN0wYb9kB6-6" value="" style="text;html=1;fillColor=none;align=center;verticalAlign=middle;whiteSpace=wrap;rounded=0;strokeColor=#000000;" vertex="1" parent="1">
          <mxGeometry x="350" y="210" width="180" height="20" as="geometry" />
        </mxCell>
        <mxCell id="TftClXgvJGGN0wYb9kB6-7" value="登录" style="text;html=1;fillColor=none;align=center;verticalAlign=middle;whiteSpace=wrap;rounded=0;strokeColor=#000000;" vertex="1" parent="1">
          <mxGeometry x="290" y="260" width="240" height="20" as="geometry" />
        </mxCell>
        <mxCell id="TftClXgvJGGN0wYb9kB6-8" value="注册" style="text;html=1;fillColor=none;align=center;verticalAlign=middle;whiteSpace=wrap;rounded=0;strokeColor=#000000;" vertex="1" parent="1">
          <mxGeometry x="290" y="300" width="240" height="20" as="geometry" />
        </mxCell>
        <mxCell id="TftClXgvJGGN0wYb9kB6-9" value="&lt;font style=&quot;font-size: 18px&quot;&gt;Welcome to MCreater&lt;/font&gt;" style="text;html=1;strokeColor=none;fillColor=none;align=center;verticalAlign=middle;whiteSpace=wrap;rounded=0;" vertex="1" parent="1">
          <mxGeometry x="290" y="110" width="240" height="50" as="geometry" />
        </mxCell>
        <mxCell id="TftClXgvJGGN0wYb9kB6-10" value="" style="rounded=0;whiteSpace=wrap;html=1;" vertex="1" parent="1">
          <mxGeometry x="99" y="460" width="630" height="340" as="geometry" />
        </mxCell>
        <mxCell id="TftClXgvJGGN0wYb9kB6-11" value="" style="endArrow=classic;html=1;exitX=0.5;exitY=1;exitDx=0;exitDy=0;strokeColor=#FF0000;" edge="1" parent="1" source="TftClXgvJGGN0wYb9kB6-8">
          <mxGeometry width="50" height="50" relative="1" as="geometry">
            <mxPoint x="300" y="510" as="sourcePoint" />
            <mxPoint x="410" y="460" as="targetPoint" />
          </mxGeometry>
        </mxCell>
        <mxCell id="TftClXgvJGGN0wYb9kB6-13" value="用户名：" style="text;html=1;strokeColor=none;fillColor=none;align=center;verticalAlign=middle;whiteSpace=wrap;rounded=0;" vertex="1" parent="1">
          <mxGeometry x="290" y="170" width="50" height="20" as="geometry" />
        </mxCell>
        <mxCell id="TftClXgvJGGN0wYb9kB6-14" value="" style="text;html=1;fillColor=none;align=center;verticalAlign=middle;whiteSpace=wrap;rounded=0;strokeColor=#000000;" vertex="1" parent="1">
          <mxGeometry x="350" y="170" width="180" height="20" as="geometry" />
        </mxCell>
        <mxCell id="TftClXgvJGGN0wYb9kB6-15" value="密&amp;nbsp; &amp;nbsp;码：" style="text;html=1;strokeColor=none;fillColor=none;align=center;verticalAlign=middle;whiteSpace=wrap;rounded=0;" vertex="1" parent="1">
          <mxGeometry x="290" y="615" width="50" height="20" as="geometry" />
        </mxCell>
        <mxCell id="TftClXgvJGGN0wYb9kB6-16" value="用户名：" style="text;html=1;strokeColor=none;fillColor=none;align=center;verticalAlign=middle;whiteSpace=wrap;rounded=0;" vertex="1" parent="1">
          <mxGeometry x="290" y="500" width="50" height="20" as="geometry" />
        </mxCell>
        <mxCell id="TftClXgvJGGN0wYb9kB6-17" value="" style="text;html=1;fillColor=none;align=center;verticalAlign=middle;whiteSpace=wrap;rounded=0;strokeColor=#000000;" vertex="1" parent="1">
          <mxGeometry x="350" y="500" width="180" height="20" as="geometry" />
        </mxCell>
        <mxCell id="TftClXgvJGGN0wYb9kB6-18" value="" style="text;html=1;fillColor=none;align=center;verticalAlign=middle;whiteSpace=wrap;rounded=0;strokeColor=#000000;" vertex="1" parent="1">
          <mxGeometry x="350" y="615" width="180" height="20" as="geometry" />
        </mxCell>
        <mxCell id="TftClXgvJGGN0wYb9kB6-19" value="确认密码：" style="text;html=1;strokeColor=none;fillColor=none;align=center;verticalAlign=middle;whiteSpace=wrap;rounded=0;" vertex="1" parent="1">
          <mxGeometry x="290" y="650" width="50" height="20" as="geometry" />
        </mxCell>
        <mxCell id="TftClXgvJGGN0wYb9kB6-20" value="" style="text;html=1;fillColor=none;align=center;verticalAlign=middle;whiteSpace=wrap;rounded=0;strokeColor=#000000;" vertex="1" parent="1">
          <mxGeometry x="350" y="650" width="180" height="20" as="geometry" />
        </mxCell>
        <mxCell id="TftClXgvJGGN0wYb9kB6-23" value="姓名：" style="text;html=1;strokeColor=none;fillColor=none;align=center;verticalAlign=middle;whiteSpace=wrap;rounded=0;" vertex="1" parent="1">
          <mxGeometry x="290" y="535" width="50" height="20" as="geometry" />
        </mxCell>
        <mxCell id="TftClXgvJGGN0wYb9kB6-24" value="" style="text;html=1;fillColor=none;align=center;verticalAlign=middle;whiteSpace=wrap;rounded=0;strokeColor=#000000;" vertex="1" parent="1">
          <mxGeometry x="350" y="535" width="180" height="20" as="geometry" />
        </mxCell>
        <mxCell id="TftClXgvJGGN0wYb9kB6-25" value="组织名：" style="text;html=1;strokeColor=none;fillColor=none;align=center;verticalAlign=middle;whiteSpace=wrap;rounded=0;" vertex="1" parent="1">
          <mxGeometry x="286" y="575" width="54" height="20" as="geometry" />
        </mxCell>
        <mxCell id="TftClXgvJGGN0wYb9kB6-26" value="" style="text;html=1;fillColor=none;align=center;verticalAlign=middle;whiteSpace=wrap;rounded=0;strokeColor=#000000;" vertex="1" parent="1">
          <mxGeometry x="350" y="575" width="180" height="20" as="geometry" />
        </mxCell>
        <mxCell id="TftClXgvJGGN0wYb9kB6-27" value="确认注册" style="text;html=1;fillColor=none;align=center;verticalAlign=middle;whiteSpace=wrap;rounded=0;strokeColor=#000000;" vertex="1" parent="1">
          <mxGeometry x="294" y="700" width="240" height="20" as="geometry" />
        </mxCell>
      </root>
    </mxGraphModel>
  </diagram>
</mxfile>
